<svg xmlns="http://www.w3.org/2000/svg" width="32" height="32" fill="none" viewBox="0 0 24 24">
  <path d="M4 11h16v8a2 2 0 0 1-2 2H6a2 2 0 0 1-2-2v-8Z" fill="#2563eb" />
  <path d="m4 11 16-3" stroke="#2563eb" strokeWidth="2" strokeLinecap="round" strokeLinejoin="round" />
  <path d="m4 7 16-3v4l-16 3V7Z" fill="#2563eb" />
  <path d="m8 6 1.5-1.5" stroke="#ffffff" strokeWidth="1.5" strokeLinecap="round" />
  <path d="m13 5 1.5-1.5" stroke="#ffffff" strokeWidth="1.5" strokeLinecap="round" />
  <path d="m18 4 1.5-1.5" stroke="#ffffff" strokeWidth="1.5" strokeLinecap="round" />
  
  <path d="M7 11l-2 3h2.5l2-3H7Z" fill="#ffffff" />
  <path d="M12 11l-2 3h2.5l2-3H12Z" fill="#ffffff" />
  <path d="M17 11l-2 3h2.5l2-3H17Z" fill="#ffffff" />
</svg>